<svg xmlns="http://www.w3.org/2000/svg" xmlns:xlink="http://www.w3.org/1999/xlink" width="500" zoomAndPan="magnify" viewBox="0 0 375 374.999991" height="500" preserveAspectRatio="xMidYMid meet" version="1.0"><defs><g/></defs><rect x="-37.5" width="450" fill="#ffffff" y="-37.499999" height="449.999989" fill-opacity="1"/><rect x="-37.5" width="450" fill="#ffffff" y="-37.499999" height="449.999989" fill-opacity="1"/><rect x="-37.5" width="450" fill="#6b7c85" y="-37.499999" height="449.999989" fill-opacity="1"/><path stroke-linecap="butt" transform="matrix(0.749688, 0, 0, 0.75, 49.97271, 50.161941)" fill="none" stroke-linejoin="miter" d="M -0.0000717212 8.497621 L 375.166619 8.497621 " stroke="#eae0c8" stroke-width="17" stroke-opacity="1" stroke-miterlimit="4"/><path stroke-linecap="butt" transform="matrix(-0.00073131, 0.750651, -0.75, -0.000730675, 56.606365, 50.237721)" fill="none" stroke-linejoin="miter" d="M -0.00138591 8.5012 L 359.696731 8.499425 " stroke="#eae0c8" stroke-width="17" stroke-opacity="1" stroke-miterlimit="4"/><path stroke-linecap="butt" transform="matrix(-0.00198658, 0.750573, -0.749997, -0.00198506, 194.136393, 55.111206)" fill="none" stroke-linejoin="miter" d="M -0.000777752 8.499598 L 264.802245 8.501318 " stroke="#eae0c8" stroke-width="17" stroke-opacity="1" stroke-miterlimit="4"/><path stroke-linecap="butt" transform="matrix(0.000000000000000379, 0.750456, -0.75, 0.000000000000000379, 259.95365, 56.542153)" fill="none" stroke-linejoin="miter" d="M 0.00108689 6.0007 L 179.902136 6.0007 " stroke="#eae0c8" stroke-width="12" stroke-opacity="1" stroke-miterlimit="4"/><path stroke-linecap="butt" transform="matrix(0.00498092, 0.750374, -0.749983, 0.00497832, 124.238404, 55.076898)" fill="none" stroke-linejoin="miter" d="M -0.00173323 6.000284 L 179.908482 6.002399 " stroke="#eae0c8" stroke-width="12" stroke-opacity="1" stroke-miterlimit="4"/><g fill="#eae0c8" fill-opacity="1"><g transform="translate(67.515811, 286.841331)"><g><path d="M 13.25 0 L 1.65625 0 L 1.65625 -11.921875 L 13.25 -11.921875 C 13.988281 -11.921875 14.625 -11.65625 15.15625 -11.125 C 15.6875 -10.59375 15.953125 -9.953125 15.953125 -9.203125 L 15.953125 -7.921875 C 15.953125 -7.148438 15.671875 -6.492188 15.109375 -5.953125 C 15.671875 -5.421875 15.953125 -4.765625 15.953125 -3.984375 L 15.953125 -2.703125 C 15.953125 -1.960938 15.6875 -1.328125 15.15625 -0.796875 C 14.625 -0.265625 13.988281 0 13.25 0 Z M 13.25 -1.484375 C 13.582031 -1.484375 13.867188 -1.601562 14.109375 -1.84375 C 14.347656 -2.082031 14.46875 -2.367188 14.46875 -2.703125 L 14.46875 -3.984375 C 14.46875 -4.316406 14.351562 -4.597656 14.125 -4.828125 C 13.90625 -5.066406 13.625 -5.195312 13.28125 -5.21875 L 3.140625 -5.21875 L 3.140625 -1.484375 Z M 13.28125 -6.703125 C 13.625 -6.710938 13.90625 -6.832031 14.125 -7.0625 C 14.351562 -7.300781 14.46875 -7.585938 14.46875 -7.921875 L 14.46875 -9.203125 C 14.46875 -9.546875 14.347656 -9.835938 14.109375 -10.078125 C 13.867188 -10.316406 13.582031 -10.4375 13.25 -10.4375 L 3.140625 -10.4375 L 3.140625 -6.703125 Z M 13.28125 -6.703125 "/></g></g><g transform="translate(84.710459, 286.841331)"><g><path d="M 3.140625 0 L 3.140625 -11.921875 L 1.65625 -11.921875 L 1.65625 0 Z M 3.140625 0 "/></g></g><g transform="translate(89.51167, 286.841331)"><g><path d="M 15.21875 0 L 1.65625 0 L 1.65625 -11.921875 L 15.21875 -11.921875 L 15.21875 -10.4375 L 3.140625 -10.4375 L 3.140625 -6.703125 L 13.8125 -6.703125 L 13.8125 -5.21875 L 3.140625 -5.21875 L 3.140625 -1.484375 L 15.21875 -1.484375 Z M 15.21875 0 "/></g></g><g transform="translate(105.967032, 286.841331)"><g><path d="M 7.59375 0 L 6.109375 0 L 6.109375 -10.4375 L 0.25 -10.4375 L 0.25 -11.921875 L 13.453125 -11.921875 L 13.453125 -10.4375 L 7.59375 -10.4375 Z M 7.59375 0 "/></g></g><g transform="translate(119.672911, 286.841331)"><g><path d="M 15.21875 0 L 1.65625 0 L 1.65625 -11.921875 L 15.21875 -11.921875 L 15.21875 -10.4375 L 3.140625 -10.4375 L 3.140625 -6.703125 L 13.8125 -6.703125 L 13.8125 -5.21875 L 3.140625 -5.21875 L 3.140625 -1.484375 L 15.21875 -1.484375 Z M 15.21875 0 "/></g></g><g transform="translate(136.128273, 286.841331)"><g><path d="M 15.953125 0 L 14.46875 0 L 14.46875 -3.25 C 14.46875 -3.582031 14.347656 -3.867188 14.109375 -4.109375 C 13.867188 -4.359375 13.582031 -4.484375 13.25 -4.484375 L 3.140625 -4.484375 L 3.140625 0 L 1.65625 0 L 1.65625 -11.921875 L 13.25 -11.921875 C 13.988281 -11.921875 14.625 -11.65625 15.15625 -11.125 C 15.6875 -10.59375 15.953125 -9.953125 15.953125 -9.203125 L 15.953125 -7.1875 C 15.953125 -6.414062 15.671875 -5.757812 15.109375 -5.21875 C 15.671875 -4.675781 15.953125 -4.019531 15.953125 -3.25 Z M 13.25 -5.953125 C 13.582031 -5.953125 13.867188 -6.070312 14.109375 -6.3125 C 14.347656 -6.5625 14.46875 -6.851562 14.46875 -7.1875 L 14.46875 -9.203125 C 14.46875 -9.546875 14.347656 -9.835938 14.109375 -10.078125 C 13.867188 -10.316406 13.582031 -10.4375 13.25 -10.4375 L 3.140625 -10.4375 L 3.140625 -5.953125 Z M 13.25 -5.953125 "/></g></g><g transform="translate(153.322921, 286.841331)"><g><path d="M 9.09375 0 L 8.296875 0 L 0.25 -11.921875 L 2.03125 -11.921875 L 8.6875 -2.0625 L 15.359375 -11.921875 L 17.140625 -11.921875 Z M 9.09375 0 "/></g></g><g transform="translate(170.708621, 286.841331)"><g><path d="M 15.21875 0 L 1.65625 0 L 1.65625 -11.921875 L 15.21875 -11.921875 L 15.21875 -10.4375 L 3.140625 -10.4375 L 3.140625 -6.703125 L 13.8125 -6.703125 L 13.8125 -5.21875 L 3.140625 -5.21875 L 3.140625 -1.484375 L 15.21875 -1.484375 Z M 15.21875 0 "/></g></g><g transform="translate(187.163983, 286.841331)"><g><path d="M 15.953125 0 L 14.46875 0 L 14.46875 -3.25 C 14.46875 -3.582031 14.347656 -3.867188 14.109375 -4.109375 C 13.867188 -4.359375 13.582031 -4.484375 13.25 -4.484375 L 3.140625 -4.484375 L 3.140625 0 L 1.65625 0 L 1.65625 -11.921875 L 13.25 -11.921875 C 13.988281 -11.921875 14.625 -11.65625 15.15625 -11.125 C 15.6875 -10.59375 15.953125 -9.953125 15.953125 -9.203125 L 15.953125 -7.1875 C 15.953125 -6.414062 15.671875 -5.757812 15.109375 -5.21875 C 15.671875 -4.675781 15.953125 -4.019531 15.953125 -3.25 Z M 13.25 -5.953125 C 13.582031 -5.953125 13.867188 -6.070312 14.109375 -6.3125 C 14.347656 -6.5625 14.46875 -6.851562 14.46875 -7.1875 L 14.46875 -9.203125 C 14.46875 -9.546875 14.347656 -9.835938 14.109375 -10.078125 C 13.867188 -10.316406 13.582031 -10.4375 13.25 -10.4375 L 3.140625 -10.4375 L 3.140625 -5.953125 Z M 13.25 -5.953125 "/></g></g><g transform="translate(204.358631, 286.841331)"><g><path d="M 3.140625 0 L 1.65625 0 L 1.65625 -11.921875 L 15.21875 -11.921875 L 15.21875 -10.4375 L 3.140625 -10.4375 L 3.140625 -6.703125 L 13.8125 -6.703125 L 13.8125 -5.21875 L 3.140625 -5.21875 Z M 3.140625 0 "/></g></g><g transform="translate(220.813993, 286.841331)"><g><path d="M 17.140625 0 L 15.359375 0 L 13.53125 -2.6875 L 3.84375 -2.6875 L 2.03125 0 L 0.25 0 L 8.296875 -11.921875 L 9.078125 -11.921875 Z M 12.53125 -4.171875 L 8.6875 -9.859375 L 4.859375 -4.171875 Z M 12.53125 -4.171875 "/></g></g><g transform="translate(238.199693, 286.841331)"><g><path d="M 15.5625 0 L 14.078125 0 L 14.078125 -5.21875 L 3.140625 -5.21875 L 3.140625 0 L 1.65625 0 L 1.65625 -11.921875 L 3.140625 -11.921875 L 3.140625 -6.703125 L 14.078125 -6.703125 L 14.078125 -11.921875 L 15.5625 -11.921875 Z M 15.5625 0 "/></g></g><g transform="translate(255.419261, 286.841331)"><g><path d="M 15.953125 0 L 14.46875 0 L 14.46875 -3.25 C 14.46875 -3.582031 14.347656 -3.867188 14.109375 -4.109375 C 13.867188 -4.359375 13.582031 -4.484375 13.25 -4.484375 L 3.140625 -4.484375 L 3.140625 0 L 1.65625 0 L 1.65625 -11.921875 L 13.25 -11.921875 C 13.988281 -11.921875 14.625 -11.65625 15.15625 -11.125 C 15.6875 -10.59375 15.953125 -9.953125 15.953125 -9.203125 L 15.953125 -7.1875 C 15.953125 -6.414062 15.671875 -5.757812 15.109375 -5.21875 C 15.671875 -4.675781 15.953125 -4.019531 15.953125 -3.25 Z M 13.25 -5.953125 C 13.582031 -5.953125 13.867188 -6.070312 14.109375 -6.3125 C 14.347656 -6.5625 14.46875 -6.851562 14.46875 -7.1875 L 14.46875 -9.203125 C 14.46875 -9.546875 14.347656 -9.835938 14.109375 -10.078125 C 13.867188 -10.316406 13.582031 -10.4375 13.25 -10.4375 L 3.140625 -10.4375 L 3.140625 -5.953125 Z M 13.25 -5.953125 "/></g></g><g transform="translate(272.61391, 286.841331)"><g><path d="M 15.21875 0 L 1.65625 0 L 1.65625 -11.921875 L 15.21875 -11.921875 L 15.21875 -10.4375 L 3.140625 -10.4375 L 3.140625 -6.703125 L 13.8125 -6.703125 L 13.8125 -5.21875 L 3.140625 -5.21875 L 3.140625 -1.484375 L 15.21875 -1.484375 Z M 15.21875 0 "/></g></g><g transform="translate(289.069271, 286.841331)"><g><path d="M 15.953125 0 L 14.953125 0 L 3.140625 -9.625 L 3.140625 0 L 1.65625 0 L 1.65625 -11.921875 L 2.671875 -11.921875 L 14.46875 -2.296875 L 14.46875 -11.921875 L 15.953125 -11.921875 Z M 15.953125 0 "/></g></g></g><g fill="#eae0c8" fill-opacity="1"><g transform="translate(154.030295, 320.865137)"><g/></g></g><g fill="#eae0c8" fill-opacity="1"><g transform="translate(158.248294, 320.865137)"><g><path d="M 17.21875 0 L 16.296875 0 L 11.53125 -9.53125 L 6.75 0 L 5.828125 0 L 0.25 -11.921875 L 1.875 -11.921875 L 6.3125 -2.4375 L 11.0625 -11.921875 L 11.984375 -11.921875 L 16.734375 -2.4375 L 21.171875 -11.921875 L 22.8125 -11.921875 Z M 17.21875 0 "/></g></g><g transform="translate(181.29909, 320.865137)"><g><path d="M 3.140625 0 L 3.140625 -11.921875 L 1.65625 -11.921875 L 1.65625 0 Z M 3.140625 0 "/></g></g><g transform="translate(186.100301, 320.865137)"><g><path d="M 15.21875 0 L 1.65625 0 L 1.65625 -11.921875 L 15.21875 -11.921875 L 15.21875 -10.4375 L 3.140625 -10.4375 L 3.140625 -6.703125 L 13.8125 -6.703125 L 13.8125 -5.21875 L 3.140625 -5.21875 L 3.140625 -1.484375 L 15.21875 -1.484375 Z M 15.21875 0 "/></g></g><g transform="translate(202.555663, 320.865137)"><g><path d="M 15.953125 0 L 14.953125 0 L 3.140625 -9.625 L 3.140625 0 L 1.65625 0 L 1.65625 -11.921875 L 2.671875 -11.921875 L 14.46875 -2.296875 L 14.46875 -11.921875 L 15.953125 -11.921875 Z M 15.953125 0 "/></g></g></g><path stroke-linecap="butt" transform="matrix(-0.00287777, 0.749132, -0.749994, -0.00288108, 331.34465, 54.950068)" fill="none" stroke-linejoin="miter" d="M 0.000275592 8.501262 L 353.419589 8.499352 " stroke="#eae0c8" stroke-width="17" stroke-opacity="1" stroke-miterlimit="4"/></svg>